<?xml version="1.0" encoding="utf-8"?>
<!-- Generator: Adobe Illustrator 25.4.1, SVG Export Plug-In . SVG Version: 6.00 Build 0)  -->
<svg version="1.1" id="Layer_1" xmlns="http://www.w3.org/2000/svg" xmlns:xlink="http://www.w3.org/1999/xlink" x="0px" y="0px"
	 viewBox="0 0 49.2 16.5" style="enable-background:new 0 0 49.2 16.5;" xml:space="preserve">
<style type="text/css">
	.st0{enable-background:new    ;}
	.st1{fill:#222237;}
	.st2{fill:#555564;}
	.st3{fill:#222237;stroke:#222237;stroke-width:7.200000e-02;stroke-miterlimit:10;}
</style>
<g>
	<g id="K">
		<g class="st0">
			<path class="st1" d="M0.1,13.2c-0.1,0-0.1,0-0.1-0.1c0.2-0.3,0.5-0.7,0.9-1.1c0.3-0.5,0.7-1,1.1-1.7c0.4-0.6,0.7-1.2,1.1-1.8
				c0.4-0.6,0.8-1.3,1.1-2c0.4-0.7,0.7-1.3,1-1.9s0.6-1.3,0.9-1.8c0,0,0,0,0,0s0,0,0,0c0,0,0-0.1-0.1-0.1c-0.4,0-0.9,0-1.3,0.1
				C4.3,2.7,3.9,2.7,3.6,2.7c-0.2,0-0.3,0-0.3-0.1c0,0,0-0.1,0-0.1c0-0.1,0.1-0.1,0.1-0.2S3.5,2.1,3.6,2C3.6,2,3.7,2,3.7,2
				c0,0.1,0.1,0.2,0.2,0.3c0.1,0,0.3,0.1,0.6,0.1s0.5,0,0.7,0.1c0.1,0,0.2,0,0.3,0s0.2,0,0.3,0c0.5,0,0.9,0,1.4,0c0.4,0,1,0,1.6-0.1
				c0,0.1,0,0.2,0,0.2c-0.1,0-0.2,0-0.4,0c-0.2,0-0.4,0-0.5,0c-0.1,0-0.2,0.1-0.3,0.2C7.1,3.3,6.7,4.1,6.2,4.8
				c-0.5,0.8-1,1.6-1.6,2.6c-0.1,0.1-0.1,0.2,0,0.2c0,0,0.1,0,0.2-0.1c0.8-0.5,1.6-1,2.4-1.5c0.8-0.5,1.5-1,2.2-1.4
				c0.2-0.1,0.4-0.3,0.9-0.6c0.4-0.3,0.8-0.6,1.3-0.8s0.8-0.5,1.2-0.8c0.4-0.2,0.6-0.4,0.6-0.4h0.1c0.1,0,0.2,0.1,0.3,0.1
				s0.2,0.1,0.3,0.1c0,0,0,0.1,0,0.1c-0.1,0-0.3,0.1-0.5,0.2c-0.2,0.1-0.5,0.3-0.9,0.5C12.1,3.4,11.6,3.7,11,4S9.7,4.8,8.8,5.4
				c-0.5,0.3-1,0.6-1.5,1c-0.5,0.3-1,0.7-1.5,1c-0.1,0-0.1,0.1-0.1,0.1c0.6,0.9,1.4,1.8,2.3,2.9s2,2.2,3.3,3.4
				c0.5,0.5,0.9,0.8,1.3,1.1c0.4,0.3,0.8,0.5,1.1,0.7c0.4,0.2,0.7,0.3,1.1,0.4c0.4,0.1,0.7,0.1,1.2,0.1c0.6,0,1.3-0.1,1.9-0.2
				c0.6-0.2,1.1-0.4,1.5-0.6c0.1-0.1,0.2-0.1,0.2,0.1c0,0,0,0.1-0.1,0.1c-0.4,0.3-1,0.5-1.7,0.7c-0.7,0.2-1.4,0.3-2.2,0.3
				c-0.5,0-1-0.1-1.5-0.2c-0.5-0.1-1.1-0.3-1.7-0.6c-0.6-0.3-1.2-0.7-1.9-1.2c-0.6-0.5-1.3-1.1-2-1.9c-0.6-0.7-1.3-1.5-2-2.3
				S5.2,8.7,4.6,7.9C4.5,7.8,4.5,7.8,4.5,7.8c0,0-0.1,0.1-0.2,0.2c-0.5,0.8-0.9,1.5-1.2,2.2c-0.4,0.7-0.8,1.4-1.1,2
				c-0.1,0.1-0.1,0.2-0.1,0.3s-0.1,0.2-0.1,0.3c-0.1,0-0.2,0-0.2,0s-0.2,0-0.2,0c-0.2,0-0.4,0.1-0.6,0.2C0.4,13,0.2,13.1,0.1,13.2z"
				/>
		</g>
	</g>
	<g id="Photography">
		<g class="st0">
			<path class="st2" d="M19.5,16.4c0-0.2,0-1.1,0-1.4v-0.4c0-0.1,0-0.9,0-0.9c0.2,0,0.5,0,0.8,0.1c0.5,0.1,0.9,0.3,0.9,0.8
				c0,0.6-0.5,1-1.3,1.1v0.2c0,0.1,0,0.5,0,0.6L19.5,16.4L19.5,16.4z M19.9,15.3c0.5-0.1,0.9-0.4,0.9-0.8c0-0.1-0.1-0.6-0.9-0.6
				V15.3z"/>
			<path class="st2" d="M21.9,16.4c0-0.1,0-0.9,0-1V15c0-0.1,0-0.9,0-1h0.4c0,0.1,0,0.8,0,0.8v0.2l1.5-0.1v-0.3c0-0.1,0-0.7,0-0.8
				h0.4c0,0.1,0,1,0,1.1v0.3c0,0,0,0.9,0,1h-0.4c0-0.1,0-0.7,0-0.8v-0.3l-1.5,0.1v0.2c0,0.1,0,0.8,0,0.9H21.9z"/>
			<path class="st2" d="M24.8,15.3c0-0.8,0.6-1.4,1.4-1.4c0.7,0,1.2,0.4,1.2,1.2c0,0.5-0.4,1.3-1.4,1.3
				C25.3,16.4,24.8,15.9,24.8,15.3z M27.1,15.1c0-0.6-0.4-0.9-0.9-0.9c-0.6,0-1,0.5-1,1.1c0,0.5,0.3,0.9,0.9,0.9
				C26.6,16.2,27.1,15.8,27.1,15.1z"/>
			<path class="st2" d="M28.6,16.4c0-0.1,0-1.1,0-1.6v-0.5c-0.4,0-0.9,0-1,0V14c0.1,0,1,0,1,0H29c0.1,0,0.9,0,1,0v0.3c0,0-0.7,0-1,0
				v0.5c0,0.7,0,1.5,0,1.6H28.6z"/>
			<path class="st2" d="M30,15.3c0-0.8,0.6-1.4,1.4-1.4c0.7,0,1.2,0.4,1.2,1.2c0,0.5-0.4,1.3-1.4,1.3C30.5,16.4,30,15.9,30,15.3z
				 M32.3,15.1c0-0.6-0.4-0.9-0.9-0.9c-0.6,0-1,0.5-1,1.1c0,0.5,0.3,0.9,0.9,0.9C31.9,16.2,32.3,15.8,32.3,15.1z"/>
			<path class="st2" d="M35.3,16.3c-0.2,0.1-0.5,0.1-0.8,0.1c-0.8,0-1.3-0.4-1.3-1c0-0.4,0.4-1.2,1.8-1.5l0.1,0.3
				c-0.8,0.1-1.5,0.7-1.5,1.2c0,0.4,0.3,0.7,1,0.7c0.2,0,0.3,0,0.4,0v-0.6c0-0.1,0-0.2,0-0.2h0.4v0.5C35.3,16,35.3,16.3,35.3,16.3z"
				/>
			<path class="st2" d="M36.5,15.3c0,0.1,0,1,0,1h-0.4c0-0.1,0-1.2,0-1.2v-0.3c0-0.1,0-0.8,0-0.9c0.2,0,0.5,0,0.8,0
				c0.5,0.1,0.8,0.2,0.8,0.6c0,0.3-0.2,0.5-0.5,0.7c0.1,0.1,0.7,0.8,0.8,0.9l-0.3,0.2c0,0-0.9-1.1-1-1.2c0.2-0.1,0.5-0.3,0.5-0.6
				c0-0.2-0.1-0.4-0.8-0.4L36.5,15.3L36.5,15.3z"/>
			<path class="st2" d="M38.1,16.3c0.2-0.3,1.2-2.3,1.3-2.4h0c0.3,0.5,1.2,2,1.4,2.4l-0.3,0.2c-0.1-0.1-0.4-0.8-0.5-0.9l-1.2,0.1
				c0,0.1-0.3,0.7-0.4,0.8L38.1,16.3z M39.9,15.3c0-0.1-0.5-0.9-0.5-0.9c0,0.1-0.5,0.9-0.5,0.9L39.9,15.3z"/>
			<path class="st2" d="M41.4,16.4c0-0.1,0-1,0-1.2v-0.4c0-0.1,0-0.8,0-0.8c0.2,0,0.5,0,0.7,0c0.5,0.1,0.8,0.3,0.8,0.7
				c0,0.5-0.5,0.9-1.2,1v0.2c0,0.1,0,0.4,0,0.5C41.8,16.4,41.4,16.4,41.4,16.4z M41.8,15.4c0.4-0.1,0.8-0.3,0.8-0.7
				c0-0.1-0.1-0.5-0.8-0.5V15.4z"/>
			<path class="st2" d="M43.6,16.4c0-0.1,0-0.9,0-1V15c0-0.1,0-0.9,0-1H44c0,0.1,0,0.8,0,0.8v0.2l1.5-0.1v-0.3c0-0.1,0-0.7,0-0.8
				h0.4c0,0.1,0,1,0,1.1v0.3c0,0,0,0.9,0,1h-0.4c0-0.1,0-0.7,0-0.8v-0.3L44,15.3v0.2c0,0.1,0,0.8,0,0.9H43.6z"/>
			<path class="st2" d="M47.4,16.4c0-0.1,0-0.4,0-0.5v-0.2c0-0.4-0.2-0.8-0.5-1.1c-0.2-0.1-0.3-0.3-0.5-0.4l0.2-0.3
				c0.2,0.1,0.4,0.3,0.5,0.4c0.2,0.2,0.4,0.4,0.5,0.7l0,0c0.1-0.3,0.2-0.5,0.4-0.7c0.2-0.2,0.5-0.4,0.7-0.4l0.1,0.3
				c-0.2,0.1-0.4,0.2-0.6,0.4c-0.2,0.3-0.4,0.6-0.4,1V16c0,0.1,0,0.3,0,0.4H47.4z"/>
		</g>
	</g>
	<g id="ristina">
		<g class="st0">
			<path class="st3" d="M13.8,7.7c-0.1,0.1-0.1,0.1-0.1,0.2C13.6,7.9,13.6,8,13.5,8c0,0,0,0-0.1,0c0,0,0,0,0,0c0,0,0-0.1-0.1-0.1
				c0,0-0.1-0.1-0.1-0.1c-0.1,0-0.1,0-0.2,0c-0.1,0-0.2,0-0.3,0.1c-0.1,0.1-0.2,0.2-0.3,0.2c-0.1,0.1-0.3,0.3-0.4,0.4
				c-0.1,0.1-0.2,0.3-0.3,0.5c-0.1,0.2-0.2,0.3-0.3,0.5c-0.1,0.2-0.2,0.3-0.3,0.5c0,0,0,0-0.1,0c0,0-0.1,0-0.1-0.1
				c-0.1-0.1-0.1-0.1-0.1-0.1c0-0.1,0-0.1,0.1-0.2c0.1-0.2,0.2-0.4,0.4-0.7c0.1-0.2,0.2-0.4,0.4-0.6c0.1-0.2,0.2-0.4,0.3-0.5
				c0.1-0.2,0.1-0.2,0.2-0.3c0-0.1,0.1-0.1,0.1-0.1c0,0,0.1,0,0.1,0.1c0.1,0,0.1,0.1,0.1,0.2c0,0,0,0.1,0,0.1c0,0.1-0.1,0.1-0.1,0.2
				c0,0.1-0.1,0.1-0.1,0.2c0,0.1-0.1,0.1-0.1,0.1c0,0,0,0.1,0,0.1c0,0,0,0,0.1,0c0.1-0.1,0.2-0.2,0.3-0.3c0.1-0.1,0.2-0.2,0.4-0.3
				c0.1-0.1,0.2-0.2,0.4-0.2c0.1-0.1,0.2-0.1,0.3-0.1c0.1,0,0.1,0,0.2,0.1C13.8,7.6,13.8,7.6,13.8,7.7z"/>
			<path class="st3" d="M16.2,8.5C16,8.8,15.8,9,15.5,9.2c-0.2,0.2-0.5,0.4-0.7,0.5c-0.2,0.1-0.3,0.2-0.5,0.2
				c-0.2,0.1-0.3,0.1-0.4,0.1c-0.1,0-0.1,0-0.2,0c-0.1,0-0.1,0-0.2-0.1c-0.1,0-0.1-0.1-0.1-0.1s-0.1-0.1-0.1-0.2
				c0-0.1,0-0.2,0.1-0.4s0.2-0.4,0.3-0.6c0.1-0.2,0.2-0.4,0.3-0.5s0.2-0.3,0.2-0.4c0-0.1,0.1-0.1,0.2-0.2s0.2-0.1,0.2-0.1
				c0,0,0.1,0,0.1,0c0,0,0,0,0,0.1s0,0.1,0,0.1c-0.1,0.2-0.2,0.3-0.3,0.5c-0.1,0.2-0.2,0.4-0.3,0.6S14,9.1,14,9.3s-0.1,0.3-0.1,0.4
				c0,0.1,0,0.2,0.1,0.2c0.1,0,0.1,0.1,0.2,0.1c0.2,0,0.3-0.1,0.5-0.2s0.4-0.2,0.6-0.4c0.2-0.1,0.4-0.3,0.5-0.5
				C15.9,8.7,16.1,8.6,16.2,8.5C16.2,8.4,16.2,8.4,16.2,8.5C16.2,8.4,16.2,8.5,16.2,8.5z M15.7,5.9c0,0.1,0,0.2-0.1,0.3
				s-0.2,0.1-0.3,0.1c-0.1,0-0.1-0.1-0.1-0.1c0-0.1,0-0.2,0.1-0.3s0.2-0.1,0.3-0.1C15.6,5.7,15.7,5.8,15.7,5.9z"/>
			<path class="st3" d="M17.3,7.9C17.3,7.9,17.2,7.9,17.3,7.9c-0.1-0.1-0.2-0.1-0.4-0.1c-0.1,0-0.2,0-0.3,0.1S16.4,8,16.4,8.1
				c0,0.1,0,0.1,0.1,0.2c0,0.1,0.1,0.1,0.2,0.2c0.1,0.1,0.1,0.2,0.2,0.3c0,0.1,0.1,0.2,0.1,0.3c0,0.2,0,0.4-0.1,0.5
				s-0.2,0.2-0.3,0.3c-0.1,0.1-0.3,0.1-0.4,0.2c-0.1,0-0.2,0-0.3,0c-0.5,0-0.7-0.2-0.8-0.5c0,0,0.1-0.1,0.1-0.1
				c0.1,0,0.1-0.1,0.1-0.1c0,0,0,0,0,0.1c0,0.1,0.1,0.3,0.2,0.4c0.1,0.1,0.2,0.1,0.4,0.1c0.1,0,0.1,0,0.2,0c0.1,0,0.2,0,0.2-0.1
				s0.1-0.1,0.2-0.2c0-0.1,0.1-0.2,0.1-0.3c0-0.1,0-0.2-0.1-0.3c0-0.1-0.1-0.2-0.1-0.2s-0.1-0.2-0.1-0.2s-0.1-0.2-0.1-0.3
				c0-0.1,0-0.2,0.1-0.3c0.1-0.1,0.1-0.2,0.2-0.3s0.2-0.2,0.3-0.2c0.1-0.1,0.2-0.1,0.4-0.1c0.1,0,0.2,0,0.2,0.1c0,0,0,0.1-0.1,0.1
				C17.3,7.8,17.3,7.9,17.3,7.9z"/>
			<path class="st3" d="M20.4,5.8c-0.1,0-0.1,0.1-0.2,0.1S20.1,6,20.1,6c-0.2,0.2-0.4,0.5-0.5,0.8c-0.2,0.3-0.3,0.6-0.5,0.8h1.5
				c0,0,0,0,0,0.1s0,0,0,0c-0.1,0-0.2,0-0.3,0c-0.1,0-0.3,0-0.4,0c-0.1,0-0.3,0-0.5,0c-0.2,0-0.3,0-0.4,0c-0.2,0.4-0.4,0.7-0.5,1
				c-0.1,0.3-0.2,0.5-0.2,0.7c0,0.3,0.1,0.4,0.4,0.4c0.1,0,0.3,0,0.4-0.1c0.2-0.1,0.3-0.1,0.5-0.3c0,0,0,0,0.1,0c0,0,0,0.1,0,0.1
				c-0.3,0.2-0.5,0.3-0.8,0.4s-0.5,0.1-0.7,0.1c-0.1,0-0.2,0-0.3-0.1s-0.1-0.2-0.1-0.4c0-0.2,0.1-0.4,0.2-0.7
				c0.1-0.3,0.4-0.7,0.6-1.1c-0.1,0-0.2,0-0.4,0c-0.1,0-0.2,0-0.2,0c0,0-0.1,0-0.1-0.1c0-0.1,0.1-0.1,0.1-0.2l0.6,0
				c0.1-0.1,0.1-0.2,0.2-0.4C19,7.1,19.1,7,19.2,6.8s0.2-0.3,0.3-0.4c0.1-0.1,0.2-0.3,0.2-0.4c0.1,0,0.2-0.1,0.4-0.2
				C20.2,5.8,20.3,5.7,20.4,5.8C20.5,5.7,20.5,5.7,20.4,5.8C20.5,5.7,20.5,5.8,20.4,5.8z"/>
			<path class="st3" d="M22.8,8.5c-0.2,0.2-0.4,0.5-0.6,0.7c-0.2,0.2-0.5,0.4-0.7,0.5C21.3,9.8,21.1,9.9,21,10
				c-0.2,0.1-0.3,0.1-0.5,0.1c0,0-0.1,0-0.2,0s-0.1,0-0.2-0.1c0,0-0.1-0.1-0.1-0.1c0,0-0.1-0.1-0.1-0.2c0-0.1,0-0.2,0.1-0.4
				s0.2-0.4,0.3-0.6c0.1-0.2,0.2-0.4,0.3-0.5s0.2-0.3,0.2-0.4c0-0.1,0.1-0.1,0.2-0.1s0.2-0.1,0.2-0.1c0,0,0.1,0,0.1,0c0,0,0,0,0,0.1
				s0,0.1,0,0.1c-0.1,0.2-0.2,0.3-0.3,0.5c-0.1,0.2-0.2,0.4-0.3,0.6s-0.2,0.3-0.2,0.5s-0.1,0.3-0.1,0.4c0,0.1,0,0.2,0.1,0.2
				c0,0,0.1,0.1,0.2,0.1c0.2,0,0.3-0.1,0.5-0.2s0.4-0.2,0.6-0.4c0.2-0.1,0.4-0.3,0.5-0.5C22.5,8.7,22.6,8.6,22.8,8.5
				C22.8,8.4,22.8,8.4,22.8,8.5C22.8,8.4,22.8,8.5,22.8,8.5z M22.2,5.9c0,0.1,0,0.2-0.1,0.3s-0.2,0.1-0.3,0.1
				c-0.1,0-0.1-0.1-0.1-0.1c0-0.1,0-0.2,0.1-0.3s0.2-0.1,0.3-0.1C22.2,5.7,22.2,5.8,22.2,5.9z"/>
			<path class="st3" d="M25.9,8.5c-0.1,0.2-0.3,0.4-0.5,0.6c-0.2,0.2-0.4,0.4-0.6,0.5c-0.2,0.2-0.4,0.3-0.6,0.4s-0.4,0.1-0.6,0.1
				c-0.1,0-0.2,0-0.3,0s-0.1-0.1-0.1-0.2s0-0.2,0.1-0.4s0.2-0.4,0.3-0.5s0.2-0.4,0.3-0.6s0.2-0.4,0.3-0.5c0,0,0-0.1,0-0.1
				c0,0,0,0-0.1,0C24,7.8,23.9,7.9,23.8,8c-0.1,0.1-0.2,0.2-0.4,0.3c-0.1,0.1-0.2,0.2-0.4,0.3s-0.2,0.2-0.3,0.3
				c-0.1,0.2-0.2,0.4-0.3,0.5s-0.2,0.4-0.3,0.6c0,0.1,0,0.1-0.1,0.1c0,0-0.1,0-0.1-0.1c0,0,0-0.1,0-0.1c0-0.1,0-0.2,0.1-0.3
				s0.2-0.3,0.3-0.4c0.1-0.2,0.3-0.5,0.4-0.8s0.2-0.5,0.3-0.8c0,0,0.1-0.1,0.1-0.1s0.1,0,0.1,0.1c0,0,0.1,0.1,0.1,0.1
				c0,0-0.1,0.1-0.2,0.3c-0.1,0.2-0.2,0.4-0.3,0.7c0.1-0.1,0.3-0.3,0.5-0.4s0.4-0.3,0.5-0.4c0.2-0.1,0.3-0.2,0.4-0.3
				s0.2-0.1,0.2-0.1c0,0,0.1,0,0.1,0.1c0,0,0,0.1,0,0.1c0,0,0,0.1-0.1,0.1c-0.1,0.1-0.2,0.3-0.3,0.5c-0.1,0.2-0.2,0.4-0.4,0.6
				s-0.2,0.4-0.3,0.6c-0.1,0.2-0.1,0.3-0.1,0.4c0,0.1,0,0.2,0.1,0.2c0,0,0.1,0.1,0.2,0.1c0.1,0,0.3-0.1,0.5-0.1
				c0.2-0.1,0.4-0.2,0.6-0.4C25,9.4,25.2,9.2,25.4,9C25.5,8.8,25.7,8.6,25.9,8.5C25.8,8.5,25.8,8.4,25.9,8.5
				C25.9,8.5,25.9,8.5,25.9,8.5z"/>
			<path class="st3" d="M29.3,8.4c-0.2,0.2-0.4,0.4-0.6,0.7c-0.2,0.2-0.4,0.4-0.6,0.6c-0.2,0.2-0.4,0.3-0.6,0.4
				c-0.2,0.1-0.4,0.2-0.6,0.2c-0.2,0-0.3,0-0.3-0.1s-0.1-0.2-0.1-0.3s0-0.3,0.1-0.4c0.1-0.2,0.2-0.4,0.3-0.6
				c-0.1,0.1-0.2,0.3-0.4,0.4c-0.2,0.1-0.3,0.3-0.4,0.4c-0.1,0.1-0.3,0.2-0.4,0.3c-0.1,0.1-0.3,0.1-0.4,0.1c-0.2,0-0.2-0.1-0.2-0.2
				c0-0.2,0.1-0.4,0.2-0.7s0.3-0.5,0.6-0.8c0.2-0.3,0.5-0.5,0.8-0.7s0.6-0.3,1-0.3c0-0.1,0.1-0.1,0.1-0.2c0,0,0.1-0.1,0.1-0.1
				L28,7.1l0,0c0,0-0.1,0.1-0.1,0.2c0,0.1-0.1,0.1-0.1,0.2c0,0,0.1,0,0.2,0s0.1,0,0.2,0c0,0,0.1,0,0.1,0.1s0,0,0,0c0,0-0.1,0-0.2,0
				c-0.1,0-0.2,0-0.2,0c-0.4,0.6-0.6,1.1-0.8,1.5s-0.2,0.6-0.2,0.8c0,0.1,0,0.1,0,0.2c0,0.1,0.1,0.1,0.2,0.1c0.1,0,0.3-0.1,0.5-0.1
				c0.2-0.1,0.4-0.2,0.5-0.4c0.2-0.2,0.4-0.4,0.6-0.6C28.8,8.9,29,8.6,29.3,8.4C29.2,8.4,29.2,8.4,29.3,8.4
				C29.3,8.4,29.3,8.4,29.3,8.4z M27.5,7.6c-0.3,0-0.5,0.1-0.8,0.3C26.4,8,26.2,8.2,26,8.5c-0.2,0.3-0.3,0.5-0.5,0.8
				s-0.2,0.4-0.2,0.6c0,0.1,0,0.1,0.1,0.1s0.1,0,0.2-0.1c0.1-0.1,0.2-0.1,0.3-0.2c0.1-0.1,0.2-0.2,0.4-0.4s0.2-0.3,0.4-0.5
				c0.1-0.2,0.2-0.4,0.4-0.6S27.4,7.7,27.5,7.6L27.5,7.6z"/>
		</g>
	</g>
	<g id="erese">
		<g class="st0">
			<path class="st3" d="M40,8.6c-0.1,0.2-0.3,0.3-0.5,0.5c-0.2,0.2-0.4,0.3-0.6,0.5c-0.2,0.1-0.4,0.3-0.7,0.4s-0.5,0.1-0.7,0.1
				c-0.4,0-0.5-0.2-0.5-0.5c0-0.2,0.1-0.5,0.2-0.7c0.1-0.3,0.3-0.5,0.4-0.7c0.2-0.2,0.4-0.4,0.6-0.5c0.2-0.2,0.4-0.2,0.6-0.2
				c0.1,0,0.2,0,0.2,0.1s0.1,0.1,0.1,0.2c0,0.1,0,0.2-0.1,0.3C39,8,38.9,8.1,38.8,8.2s-0.3,0.2-0.5,0.2S38,8.6,37.7,8.6
				c0,0.1-0.1,0.2-0.1,0.3c0,0.1-0.1,0.3-0.1,0.5c0,0.3,0.2,0.5,0.4,0.5c0.2,0,0.4,0,0.6-0.1c0.2-0.1,0.4-0.2,0.6-0.3
				s0.3-0.3,0.5-0.4S39.9,8.7,40,8.6C40,8.5,40,8.5,40,8.6C40,8.5,40,8.5,40,8.6z M38.8,7.7c0-0.1,0-0.2-0.2-0.2
				c-0.1,0-0.2,0-0.2,0.1s-0.2,0.1-0.2,0.2S38,8,38,8.1s-0.1,0.2-0.2,0.3c0,0,0,0,0.1,0c0,0,0.1,0,0.1,0c0.2,0,0.4-0.1,0.6-0.2
				C38.7,8.1,38.8,7.9,38.8,7.7z"/>
			<path class="st3" d="M42.1,7.6c0,0.1-0.1,0.1-0.2,0.2c0,0.1-0.1,0.1-0.1,0.2c0,0,0,0,0,0c0,0,0,0,0,0c0,0,0-0.1-0.1-0.1
				c0,0-0.1-0.1-0.1-0.1c0,0-0.1,0-0.2,0c-0.1,0-0.2,0-0.3,0.1c-0.1,0.1-0.2,0.2-0.3,0.2c-0.2,0.1-0.3,0.3-0.4,0.4S40.1,8.8,40,9
				c-0.1,0.2-0.2,0.3-0.3,0.5c-0.1,0.2-0.2,0.3-0.3,0.5c0,0,0,0-0.1,0c0,0,0,0-0.1-0.1c0-0.1-0.1-0.1-0.1-0.1c0-0.1,0-0.1,0.1-0.2
				c0.1-0.2,0.2-0.4,0.4-0.7c0.1-0.2,0.2-0.4,0.4-0.6c0.1-0.2,0.2-0.4,0.3-0.5c0.1-0.2,0.2-0.2,0.2-0.3c0-0.1,0.1-0.1,0.1-0.1
				s0,0,0.1,0.1c0.1,0,0.1,0.1,0.1,0.2c0,0,0,0.1,0,0.1c0,0.1-0.1,0.1-0.1,0.2c0,0.1-0.1,0.1-0.1,0.2c0,0.1,0,0.1-0.1,0.1
				c0,0,0,0.1,0,0.1s0,0,0.1,0c0.1-0.1,0.2-0.2,0.3-0.3c0.1-0.1,0.2-0.2,0.4-0.3c0.1-0.1,0.2-0.2,0.4-0.2c0.1-0.1,0.2-0.1,0.3-0.1
				c0.1,0,0.1,0,0.2,0.1S42.1,7.5,42.1,7.6z"/>
			<path class="st3" d="M44.6,8.6c-0.1,0.2-0.3,0.3-0.5,0.5c-0.2,0.2-0.4,0.3-0.6,0.5c-0.2,0.1-0.4,0.3-0.7,0.4s-0.5,0.1-0.7,0.1
				c-0.4,0-0.5-0.2-0.5-0.5c0-0.2,0.1-0.5,0.2-0.7c0.1-0.3,0.3-0.5,0.4-0.7c0.2-0.2,0.4-0.4,0.6-0.5c0.2-0.2,0.4-0.2,0.6-0.2
				c0.1,0,0.2,0,0.2,0.1s0.1,0.1,0.1,0.2c0,0.1,0,0.2-0.1,0.3c-0.1,0.1-0.1,0.2-0.3,0.3S43.1,8.4,43,8.5s-0.4,0.1-0.7,0.1
				c0,0.1-0.1,0.2-0.1,0.3c0,0.1-0.1,0.3-0.1,0.5c0,0.3,0.2,0.5,0.4,0.5c0.2,0,0.4,0,0.6-0.1c0.2-0.1,0.4-0.2,0.6-0.3S44,9.1,44.2,9
				S44.4,8.7,44.6,8.6C44.6,8.5,44.6,8.5,44.6,8.6C44.6,8.5,44.6,8.5,44.6,8.6z M43.4,7.7c0-0.1,0-0.2-0.2-0.2c-0.1,0-0.2,0-0.2,0.1
				s-0.2,0.1-0.2,0.2S42.6,8,42.5,8.1s-0.1,0.2-0.2,0.3c0,0,0,0,0.1,0c0,0,0.1,0,0.1,0c0.2,0,0.4-0.1,0.6-0.2
				C43.3,8.1,43.4,7.9,43.4,7.7z"/>
			<path class="st3" d="M45.8,7.8C45.8,7.8,45.7,7.8,45.8,7.8c-0.1-0.1-0.2-0.1-0.4-0.1c-0.1,0-0.2,0-0.3,0.1S44.9,7.9,44.9,8
				c0,0.1,0,0.1,0.1,0.2c0,0.1,0.1,0.1,0.2,0.2c0.1,0.1,0.1,0.2,0.2,0.3c0,0.1,0.1,0.2,0.1,0.3c0,0.2,0,0.4-0.1,0.5
				s-0.2,0.2-0.3,0.3c-0.1,0.1-0.3,0.1-0.4,0.2s-0.2,0-0.3,0c-0.5,0-0.7-0.2-0.8-0.5c0,0,0.1-0.1,0.1-0.1c0,0,0.1-0.1,0.1-0.1
				c0,0,0,0,0,0.1c0,0.1,0.1,0.3,0.2,0.4c0.1,0.1,0.2,0.1,0.4,0.1c0.1,0,0.1,0,0.2,0c0.1,0,0.2,0,0.2-0.1c0.1,0,0.1-0.1,0.2-0.2
				s0.1-0.2,0.1-0.3c0-0.1,0-0.2-0.1-0.3c0-0.1-0.1-0.2-0.1-0.2c0-0.1-0.1-0.2-0.1-0.2s-0.1-0.2-0.1-0.3s0-0.2,0.1-0.3
				c0.1-0.1,0.2-0.2,0.2-0.3s0.2-0.2,0.3-0.2c0.1-0.1,0.2-0.1,0.4-0.1c0.1,0,0.2,0,0.2,0.1c0,0,0,0.1-0.1,0.1
				C45.8,7.7,45.8,7.8,45.8,7.8z"/>
			<path class="st3" d="M49.2,8.6c-0.1,0.2-0.3,0.3-0.5,0.5c-0.2,0.2-0.4,0.3-0.6,0.5c-0.2,0.1-0.4,0.3-0.7,0.4s-0.5,0.1-0.7,0.1
				c-0.4,0-0.5-0.2-0.5-0.5c0-0.2,0.1-0.5,0.2-0.7c0.1-0.3,0.3-0.5,0.4-0.7c0.2-0.2,0.4-0.4,0.6-0.5c0.2-0.2,0.4-0.2,0.6-0.2
				c0.1,0,0.2,0,0.2,0.1s0.1,0.1,0.1,0.2c0,0.1,0,0.2-0.1,0.3c-0.1,0.1-0.1,0.2-0.3,0.3c-0.1,0.1-0.3,0.2-0.5,0.2s-0.4,0.1-0.7,0.1
				c0,0.1-0.1,0.2-0.1,0.3c0,0.1-0.1,0.3-0.1,0.5c0,0.3,0.2,0.5,0.4,0.5c0.2,0,0.4,0,0.6-0.1c0.2-0.1,0.4-0.2,0.6-0.3
				s0.3-0.3,0.5-0.4S49,8.7,49.2,8.6C49.1,8.5,49.1,8.5,49.2,8.6C49.2,8.5,49.2,8.5,49.2,8.6z M47.9,7.7c0-0.1,0-0.2-0.2-0.2
				c-0.1,0-0.2,0-0.2,0.1s-0.2,0.1-0.2,0.2S47.1,8,47.1,8.1c-0.1,0.1-0.1,0.2-0.2,0.3c0,0,0,0,0.1,0c0,0,0.1,0,0.1,0
				c0.2,0,0.4-0.1,0.6-0.2C47.8,8.1,47.9,7.9,47.9,7.7z"/>
		</g>
	</g>
	<g id="T">
		<g class="st0">
			<path class="st1" d="M36,2.6c-0.8,0-1.6,0-2.2,0.1S32.5,2.9,32,3.2c-0.5,0.2-0.9,0.6-1.3,1.1S30,5.4,29.6,6.2
				c0,0.1-0.1,0.1-0.1,0.1s-0.1-0.1-0.1-0.2c0.1-0.4,0.3-0.8,0.5-1.2c0.2-0.4,0.4-0.8,0.6-1.1c0.2-0.3,0.5-0.6,0.8-0.9
				s0.6-0.4,1-0.5c0.4-0.1,0.8-0.1,1.3-0.1c0.5,0,1,0,1.5,0c0.5,0,0.9,0,1.4,0s0.9,0,1.4,0h1c1.3,0,2.3-0.2,3-0.6
				c0.2-0.1,0.5-0.3,0.7-0.6C42.8,0.9,43,0.6,43,0.3c0-0.1,0-0.1,0-0.2c0,0,0,0,0-0.1C42.9,0,42.9,0,43,0c0,0,0,0,0.1,0.1
				c0.2,0.2,0.3,0.4,0.4,0.6c0,0.1,0.1,0.2,0.1,0.3c0,0.1,0,0.2-0.1,0.3c-0.3,0.4-0.7,0.8-1.2,0.9s-1.2,0.3-1.9,0.3
				c-0.3,0-0.5,0-0.8,0s-0.6,0-0.8,0c-0.2,0-0.4,0.1-0.5,0.2c-0.9,1.3-1.7,2.6-2.4,3.9s-1.4,2.5-2,3.6c-0.1,0.3-0.3,0.5-0.3,0.7
				c-0.1,0.2-0.1,0.4-0.2,0.6c0,0.1,0,0.2,0,0.4s0.1,0.2,0.2,0.3s0.3,0.2,0.5,0.2c0.2,0.1,0.5,0.1,0.8,0.1c0.1,0,0.2,0,0.3,0
				s0.2,0,0.3,0c0,0.1,0,0.1-0.1,0.2c-0.3,0-0.6,0.1-0.9,0.1s-0.6,0-0.9,0c-0.2,0-0.5,0-0.7,0s-0.4,0-0.6-0.1
				c-0.2-0.1-0.3-0.1-0.4-0.2s-0.1-0.3-0.1-0.5c0-0.1,0-0.3,0.1-0.4c0.1-0.2,0.1-0.3,0.3-0.5c0.4-0.7,0.8-1.4,1.3-2.1
				s0.9-1.4,1.3-2.2c0.4-0.7,0.8-1.4,1.2-2.1c0.4-0.7,0.8-1.3,1.1-2c0.1-0.1,0-0.2-0.1-0.2L36,2.6L36,2.6z"/>
		</g>
	</g>
</g>
</svg>
